<svg width="21" height="20" viewBox="0 0 21 20" fill="none" xmlns="http://www.w3.org/2000/svg">
<path d="M17.9286 17.5084H2.92138C2.68793 17.5084 2.49062 17.4278 2.32943 17.2666C2.16824 17.1054 2.08765 16.9081 2.08765 16.6746V10.405C2.08765 10.1604 2.18214 9.95475 2.37112 9.788L5.42258 7.12006V3.33491C5.42258 3.10146 5.50317 2.90415 5.66436 2.74296C5.82555 2.58177 6.02287 2.50118 6.25631 2.50118H17.9286C18.162 2.50118 18.3593 2.58177 18.5205 2.74296C18.6817 2.90415 18.7623 3.10146 18.7623 3.33491V16.6746C18.7623 16.9081 18.6817 17.1054 18.5205 17.2666C18.3593 17.4278 18.162 17.5084 17.9286 17.5084ZM7.92378 15.8409H10.425V10.7885L7.09005 7.88709L3.75511 10.7885V15.8409H6.25631V12.506H7.92378V15.8409ZM12.0924 15.8409H17.0948V4.16864H7.09005V5.93616C7.30126 5.93616 7.48468 6.00841 7.64031 6.15293L11.809 9.788C11.998 9.95475 12.0924 10.1604 12.0924 10.405V15.8409ZM13.7599 9.17104H15.4274V10.8385H13.7599V9.17104ZM13.7599 12.506H15.4274V14.1734H13.7599V12.506ZM13.7599 5.83611H15.4274V7.50358H13.7599V5.83611ZM10.425 5.83611H12.0924V7.50358H10.425V5.83611Z" fill="#4ADE80"/>
</svg>
