<svg width="21" height="20" viewBox="0 0 21 20" fill="none" xmlns="http://www.w3.org/2000/svg">
<path d="M2.08765 4.16865L7.92378 1.66745L12.9262 4.16865L18.1787 1.91757C18.2899 1.8731 18.3982 1.8731 18.5039 1.91757C18.6095 1.96204 18.6845 2.03429 18.729 2.13434C18.7512 2.18992 18.7623 2.2455 18.7623 2.30109V15.8409L12.9262 18.3421L7.92378 15.8409L2.67126 18.092C2.5601 18.1365 2.45171 18.1365 2.3461 18.092C2.2405 18.0475 2.16546 17.9753 2.121 17.8752C2.09876 17.8196 2.08765 17.7641 2.08765 17.7085V4.16865ZM13.7599 16.1744L17.0948 14.7404V4.202L13.7599 5.61935V16.1744ZM12.0924 16.0577V5.61935L8.75751 3.95188V14.3902L12.0924 16.0577ZM7.09005 14.3902V3.83516L3.75511 5.26918V15.8076L7.09005 14.3902Z" fill="#C084FC"/>
</svg>
