<svg width="21" height="20" viewBox="0 0 21 20" fill="none" xmlns="http://www.w3.org/2000/svg">
<path d="M16.4367 8.01675L16.22 8.50008C16.1756 8.61119 16.1006 8.68619 15.995 8.72508C15.8894 8.76397 15.7839 8.76397 15.6783 8.72508C15.5728 8.68619 15.4978 8.61119 15.4533 8.50008L15.2367 8.01675C15.0589 7.60564 14.8089 7.23619 14.4867 6.90841C14.1644 6.58064 13.7978 6.32786 13.3867 6.15008L12.7533 5.86675C12.6422 5.8223 12.5672 5.74452 12.5283 5.63341C12.4894 5.5223 12.4894 5.41119 12.5283 5.30008C12.5672 5.18897 12.6422 5.11119 12.7533 5.06675L13.3533 4.80008C13.7756 4.61119 14.1506 4.35008 14.4783 4.01675C14.8061 3.68341 15.0589 3.30008 15.2367 2.86675L15.4367 2.35008C15.4922 2.23897 15.5728 2.16119 15.6783 2.11675C15.7839 2.0723 15.8894 2.0723 15.995 2.11675C16.1006 2.16119 16.1811 2.23897 16.2367 2.35008L16.4367 2.86675C16.6144 3.30008 16.8672 3.68341 17.195 4.01675C17.5228 4.35008 17.8978 4.61119 18.32 4.80008L18.92 5.06675C19.0311 5.11119 19.1061 5.18897 19.145 5.30008C19.1839 5.41119 19.1839 5.5223 19.145 5.63341C19.1061 5.74452 19.0311 5.8223 18.92 5.86675L18.2867 6.15008C17.8756 6.32786 17.5089 6.58064 17.1867 6.90841C16.8644 7.23619 16.6144 7.60564 16.4367 8.01675ZM5.00333 4.58341C4.70333 4.58341 4.42555 4.65841 4.17 4.80841C3.91444 4.95841 3.71166 5.16119 3.56166 5.41675C3.41166 5.6723 3.33666 5.95008 3.33666 6.25008V14.5834C3.33666 14.8834 3.41166 15.1612 3.56166 15.4167C3.71166 15.6723 3.91444 15.8751 4.17 16.0251C4.42555 16.1751 4.70333 16.2501 5.00333 16.2501H15.0033C15.3033 16.2501 15.5811 16.1751 15.8367 16.0251C16.0922 15.8751 16.295 15.6723 16.445 15.4167C16.595 15.1612 16.67 14.8834 16.67 14.5834V10.4167H18.3367V14.5834C18.3367 15.1834 18.1867 15.739 17.8867 16.2501C17.5867 16.7612 17.1811 17.1667 16.67 17.4667C16.1589 17.7667 15.6033 17.9167 15.0033 17.9167H5.00333C4.40333 17.9167 3.84778 17.7667 3.33666 17.4667C2.82555 17.1667 2.42 16.7612 2.12 16.2501C1.82 15.739 1.67 15.1834 1.67 14.5834V6.25008C1.67 5.65008 1.82 5.09453 2.12 4.58341C2.42 4.0723 2.82555 3.66675 3.33666 3.36675C3.84778 3.06675 4.40333 2.91675 5.00333 2.91675H10.8367V4.58341H5.00333Z" fill="#60A5FA"/>
</svg>
